<svg aria-hidden="true" style="width:0;height:0;position:absolute;overflow:hidden" xmlns="http://www.w3.org/2000/svg"><defs><symbol id="next" viewBox="0 0 18 32"><path d="M17.653 15.035 2.792.875a1.334 1.334 0 0 0-1.84 0L.936.891a1.222 1.222 0 0 0-.282 1.373c.065.153.162.291.282.405l13.995 13.333L.936 29.33a1.212 1.212 0 0 0-.381.889 1.236 1.236 0 0 0 .381.889l.016.016a1.334 1.334 0 0 0 1.84 0l14.861-14.16a1.331 1.331 0 0 0 0-1.93z"/></symbol><symbol id="prev" viewBox="0 0 18 32"><path d="m.48 16.965 14.861 14.16a1.334 1.334 0 0 0 1.84 0l.016-.016a1.237 1.237 0 0 0 .382-.889 1.22 1.22 0 0 0-.382-.889L3.202 15.998 17.197 2.67a1.222 1.222 0 0 0 .282-1.373 1.231 1.231 0 0 0-.282-.405l-.016-.016a1.336 1.336 0 0 0-1.84 0L.48 15.036a1.331 1.331 0 0 0 0 1.93z"/></symbol></defs></svg>