<svg aria-hidden="true" style="position: absolute; width: 0; height: 0; overflow: hidden;" version="1.1" xmlns="http://www.w3.org/2000/svg" xmlns:xlink="http://www.w3.org/1999/xlink">
<defs>
<symbol id="next" viewBox="0 0 18 32">
<path d="M17.653 15.035l-14.861-14.16c-0.248-0.236-0.577-0.368-0.92-0.368s-0.672 0.132-0.92 0.368l-0.016 0.016c-0.121 0.115-0.217 0.253-0.282 0.405s-0.099 0.318-0.099 0.484c0 0.166 0.034 0.331 0.099 0.484s0.162 0.291 0.282 0.405l13.995 13.333-13.995 13.328c-0.121 0.115-0.217 0.252-0.282 0.405s-0.099 0.317-0.099 0.484 0.034 0.331 0.099 0.484c0.066 0.153 0.162 0.291 0.282 0.405l0.016 0.016c0.248 0.236 0.577 0.368 0.92 0.368s0.672-0.132 0.92-0.368l14.861-14.16c0.131-0.125 0.235-0.274 0.306-0.44s0.108-0.345 0.108-0.525c0-0.181-0.037-0.359-0.108-0.525s-0.175-0.316-0.306-0.44z"></path>
</symbol>
<symbol id="prev" viewBox="0 0 18 32">
<path d="M0.48 16.965l14.861 14.16c0.248 0.236 0.577 0.368 0.92 0.368s0.672-0.132 0.92-0.368l0.016-0.016c0.121-0.115 0.217-0.252 0.282-0.405s0.1-0.317 0.1-0.484-0.034-0.331-0.1-0.484c-0.066-0.153-0.162-0.291-0.282-0.405l-13.995-13.333 13.995-13.328c0.121-0.115 0.217-0.253 0.282-0.405s0.1-0.318 0.1-0.484-0.034-0.331-0.1-0.484c-0.066-0.153-0.162-0.291-0.282-0.405l-0.016-0.016c-0.248-0.236-0.578-0.368-0.92-0.368s-0.672 0.132-0.92 0.368l-14.861 14.16c-0.131 0.125-0.235 0.274-0.306 0.44s-0.108 0.345-0.108 0.525c0 0.181 0.037 0.359 0.108 0.525s0.175 0.316 0.306 0.44z"></path>
</symbol>
<symbol id="next-sm" viewBox="0 0 17 32">
<path stroke-linejoin="miter" stroke-linecap="butt" stroke-miterlimit="4" stroke-width="1.4545" d="M16.349 15.605v0c0.054 0.051 0.096 0.112 0.125 0.18v0c0.029 0.068 0.044 0.141 0.044 0.215s-0.015 0.147-0.044 0.215v0c-0.029 0.068-0.072 0.129-0.125 0.18v0l-14.186 13.516c-0.101 0.097-0.236 0.151-0.376 0.151-0.138 0-0.271-0.052-0.371-0.146l-0.008-0.008 0-0-0.014-0.013c-0.044-0.041-0.078-0.091-0.102-0.147s-0.036-0.115-0.036-0.175 0.012-0.12 0.036-0.175c0.024-0.055 0.058-0.105 0.102-0.147l0.001-0.001 13.911-13.249-13.912-13.255c-0.044-0.041-0.078-0.091-0.102-0.147s-0.036-0.115-0.036-0.175c0-0.060 0.012-0.12 0.036-0.175s0.058-0.105 0.102-0.147l0 0 0.021-0.021c0.101-0.094 0.234-0.146 0.371-0.146 0.14 0 0.275 0.054 0.376 0.151l0 0 14.186 13.516z"></path>
</symbol>
<symbol id="prev-sm" viewBox="0 0 17 32">
<path stroke-linejoin="miter" stroke-linecap="butt" stroke-miterlimit="4" stroke-width="1.4545" d="M1.105 16.395v0c-0.053-0.051-0.096-0.112-0.125-0.18v0c-0.029-0.068-0.044-0.141-0.044-0.215s0.015-0.147 0.044-0.215v0c0.029-0.068 0.072-0.129 0.125-0.18v-0l14.186-13.516c0.102-0.097 0.236-0.151 0.376-0.151 0.138 0 0.271 0.052 0.371 0.146l0.008 0.008-0 0 0.014 0.013c0.044 0.041 0.078 0.091 0.102 0.147s0.036 0.115 0.036 0.175-0.012 0.12-0.036 0.175c-0.024 0.055-0.059 0.105-0.102 0.147l-0.001 0.001-13.911 13.249 13.912 13.255c0.044 0.041 0.078 0.091 0.102 0.147s0.036 0.115 0.036 0.175c0 0.060-0.012 0.12-0.036 0.175s-0.059 0.105-0.102 0.147l-0-0-0.013 0.013-0.008 0.008c-0.101 0.094-0.233 0.146-0.371 0.146-0.14 0-0.275-0.054-0.376-0.151l-0-0-14.186-13.516z"></path>
</symbol>
<symbol id="cls-menu" viewBox="0 0 30 32">
<path d="M16.219 14.826l4.928-4.924c0.166-0.194 0.253-0.443 0.243-0.698s-0.116-0.497-0.296-0.677c-0.181-0.18-0.423-0.286-0.678-0.296s-0.505 0.077-0.699 0.243l-4.928 4.873-4.958-4.954c-0.194-0.166-0.443-0.253-0.699-0.243s-0.497 0.116-0.678 0.296c-0.181 0.18-0.286 0.422-0.296 0.677s0.077 0.504 0.243 0.698l4.948 5.005-4.846 4.782c-0.106 0.091-0.192 0.203-0.253 0.328s-0.095 0.263-0.1 0.402 0.018 0.279 0.069 0.409c0.051 0.13 0.128 0.248 0.227 0.347s0.217 0.176 0.347 0.227c0.13 0.051 0.269 0.074 0.409 0.069s0.277-0.040 0.402-0.1c0.126-0.061 0.238-0.147 0.329-0.253l4.836-4.833 4.806 4.802c0.194 0.166 0.443 0.253 0.699 0.243s0.497-0.116 0.678-0.296c0.181-0.18 0.286-0.422 0.296-0.677s-0.077-0.504-0.243-0.698l-4.786-4.751z"></path>
</symbol>
</defs>
</svg>
